<svg xmlns="http://www.w3.org/2000/svg" viewBox="0 0 16 16" class="r11rvvjhc__design-iconfont" width="32" height="32">
  <g clip-path="url(#r11rvvjhc__d3w6hdkph__clip0_325_1322)">
    <path d="M13.5 7.8285C13.5 7.69589 13.5527 7.56871 13.6464 7.47495C13.7402 7.38118 13.8674 7.3285 14 7.3285C14.1326 7.3285 14.2598 7.38118 14.3536 7.47495C14.4473 7.56871 14.5 7.69589 14.5 7.8285V12C14.5 12.663 14.2366 13.2989 13.7678 13.7678C13.2989 14.2366 12.663 14.5 12 14.5H4C3.33696 14.5 2.70107 14.2366 2.23223 13.7678C1.76339 13.2989 1.5 12.663 1.5 12V4C1.5 3.33696 1.76339 2.70107 2.23223 2.23223C2.70107 1.76339 3.33696 1.5 4 1.5H8.759C8.89161 1.5 9.01879 1.55268 9.11255 1.64645C9.20632 1.74021 9.259 1.86739 9.259 2C9.259 2.13261 9.20632 2.25979 9.11255 2.35355C9.01879 2.44732 8.89161 2.5 8.759 2.5H4C3.60218 2.5 3.22064 2.65804 2.93934 2.93934C2.65804 3.22064 2.5 3.60218 2.5 4V12C2.5 12.3978 2.65804 12.7794 2.93934 13.0607C3.22064 13.342 3.60218 13.5 4 13.5H12C12.3978 13.5 12.7794 13.342 13.0607 13.0607C13.342 12.7794 13.5 12.3978 13.5 12V7.8285ZM13.284 2.312C13.3753 2.21852 13.4995 2.16448 13.6301 2.16143C13.7607 2.15839 13.8873 2.20658 13.9828 2.2957C14.0784 2.38482 14.1352 2.50779 14.1412 2.6383C14.1472 2.7688 14.1019 2.89648 14.015 2.994L8.56 8.845C8.51522 8.89303 8.46142 8.93177 8.40166 8.95901C8.34191 8.98625 8.27738 9.00145 8.21175 9.00375C8.14612 9.00605 8.08069 8.99539 8.01917 8.9724C7.95766 8.94941 7.90128 8.91453 7.85325 8.86975C7.80522 8.82497 7.76648 8.77117 7.73924 8.71141C7.712 8.65166 7.6968 8.58713 7.6945 8.5215C7.6922 8.45587 7.70285 8.39043 7.72585 8.32892C7.74884 8.26741 7.78372 8.21103 7.8285 8.163L13.284 2.312Z"></path>
  </g>
  <defs>
    <clipPath id="r11rvvjhc__d3w6hdkph__clip0_325_1322">
      <path d="M0 0H16V16H0z"></path>
    </clipPath>
  </defs>
</svg>