<svg xmlns="http://www.w3.org/2000/svg" viewBox="0 0 32 32" class="80irfaqzy__design-iconfont" width="32" height="32">
  <path d="M5.37143 5.41176V26.5882H26.6286V5.41176H5.37143ZM5.37143 4H26.6286C26.9923 4 27.3411 4.14874 27.5983 4.4135C27.8555 4.67825 28 5.03734 28 5.41176V26.5882C28 26.9627 27.8555 27.3217 27.5983 27.5865C27.3411 27.8513 26.9923 28 26.6286 28H5.37143C5.0077 28 4.65887 27.8513 4.40168 27.5865C4.14449 27.3217 4 26.9627 4 26.5882V5.41176C4 5.03734 4.14449 4.67825 4.40168 4.4135C4.65887 4.14874 5.0077 4 5.37143 4ZM13.6 5.41176V14.2889L15.9397 13.4207C16.2458 13.3072 16.5812 13.3094 16.8859 13.4271L19.0857 14.2755V5.41176H13.6ZM13.6 4H19.0857C19.4494 4 19.7983 4.14874 20.0555 4.4135C20.3127 4.67825 20.4571 5.03734 20.4571 5.41176V14.2755C20.4572 14.5036 20.4035 14.7284 20.3007 14.9305C20.198 15.1326 20.0491 15.306 19.867 15.436C19.6849 15.5659 19.4749 15.6485 19.255 15.6767C19.0351 15.7048 18.8118 15.6777 18.6043 15.5976L16.4053 14.7485L14.0649 15.6167C13.858 15.6935 13.6362 15.7179 13.4182 15.6878C13.2001 15.6578 12.9924 15.5743 12.8123 15.4442C12.6322 15.3142 12.4852 15.1414 12.3836 14.9406C12.282 14.7398 12.2289 14.5168 12.2286 14.2904V5.41176C12.2286 5.03734 12.3731 4.67825 12.6303 4.4135C12.8874 4.14874 13.2363 4 13.6 4ZM4 11.0588V9.64706H12.9143V11.0588H4ZM19.0857 11.0588V9.64706H26.6286V11.0588H19.0857Z"></path>
</svg>