<svg xmlns="http://www.w3.org/2000/svg" viewBox="0 0 32 32" class="2zk2zb9xs__design-iconfont" width="32" height="32">
  <path d="M26.12 5H5.87679C5.11503 5.00055 4.38454 5.29304 3.84533 5.81339C3.30612 6.33374 3.00215 7.03954 3 7.77619V24.2238C3.00215 24.9605 3.30612 25.6663 3.84533 26.1866C4.38454 26.707 5.11503 26.9994 5.87679 27H26.12C26.8822 27.0001 27.6135 26.708 28.1534 26.1876C28.6932 25.6672 28.9977 24.961 29 24.2238V7.77619C28.9978 7.039 28.6934 6.33272 28.1535 5.81228C27.6136 5.29184 26.8823 4.99972 26.12 5ZM5.87679 6.44886H26.12C26.4844 6.44886 26.8339 6.58867 27.0919 6.83762C27.3498 7.08657 27.4951 7.4243 27.4958 7.77671V10.6278C27.4612 10.6219 27.4263 10.6184 27.3913 10.6173H4.50096V7.77619C4.50196 7.42391 4.64734 7.08639 4.90524 6.83759C5.16313 6.58878 5.5125 6.44899 5.87679 6.44886ZM26.12 25.5501H5.87679C5.51269 25.55 5.16348 25.4103 4.90562 25.1617C4.64775 24.9132 4.50225 24.5759 4.50096 24.2238V12.0714H27.3913C27.4263 12.0703 27.4612 12.0668 27.4958 12.061V24.2238C27.4946 24.5759 27.3492 24.9133 27.0913 25.1619C26.8334 25.4105 26.4841 25.5501 26.12 25.5501ZM21.7958 14.195C21.6972 14.1948 21.5996 14.2135 21.5085 14.2498C21.4173 14.2862 21.3345 14.3395 21.2647 14.4069C21.1948 14.4742 21.1394 14.5541 21.1016 14.6422C21.0637 14.7302 21.0441 14.8246 21.044 14.9199C21.03 16.2475 20.4748 17.5161 19.4991 18.4502C18.5233 19.3842 17.2058 19.9081 15.8329 19.9081C14.46 19.9081 13.1425 19.3842 12.1667 18.4502C11.191 17.5161 10.6358 16.2475 10.6218 14.9199C10.6218 14.7271 10.5426 14.5423 10.4017 14.406C10.2607 14.2697 10.0696 14.1931 9.87023 14.1931C9.6709 14.1931 9.47974 14.2697 9.33879 14.406C9.19785 14.5423 9.11867 14.7271 9.11867 14.9199C9.16581 16.6116 9.89388 18.2188 11.1479 19.3992C12.4019 20.5797 14.0829 21.2402 15.8329 21.2402C17.5829 21.2402 19.2639 20.5797 20.5179 19.3992C21.7719 18.2188 22.5 16.6116 22.5471 14.9199C22.5468 14.7274 22.4675 14.543 22.3267 14.407C22.1858 14.2711 21.9949 14.1948 21.7958 14.195Z"></path>
</svg>