<svg xmlns="http://www.w3.org/2000/svg" viewBox="0 0 32 32" class="v2p7g5hm8__design-iconfont" width="32" height="32">
  <path d="M10 15H22V16.2963H10V15ZM10 20.7037H17.3446V22H10V20.7037Z"></path>
  <path d="M24.426 29H7.574C7.222 29 6.892 28.9331 6.562 28.7994C6.254 28.6657 5.968 28.4874 5.748 28.2422C5.506 27.9971 5.33 27.7297 5.198 27.4176C5.066 27.0833 5 26.749 5 26.3924V8.62984C5 8.27326 5.066 7.93895 5.198 7.60465C5.33 7.29264 5.506 7.00291 5.748 6.78004C5.99 6.53488 6.254 6.35659 6.562 6.22287C6.892 6.08915 7.222 6.02229 7.574 6.02229H10.126V7.33721H7.574C6.87 7.33721 6.276 7.91667 6.276 8.65213V26.4147C6.276 27.1279 6.848 27.7297 7.574 27.7297H24.404C25.108 27.7297 25.702 27.1502 25.702 26.4147V8.62984C25.702 7.91667 25.13 7.31492 24.404 7.31492H21.874V6H24.426C24.778 6 25.108 6.06686 25.438 6.20058C25.746 6.3343 26.032 6.5126 26.252 6.75775C26.494 7.00291 26.67 7.27035 26.802 7.58236C26.934 7.91667 27 8.25097 27 8.60756V26.3702C27 26.7267 26.934 27.061 26.802 27.3953C26.67 27.7074 26.494 27.9971 26.252 28.22C26.01 28.4651 25.746 28.6434 25.438 28.7771C25.108 28.9331 24.778 29 24.426 29Z"></path>
  <path d="M22.9525 10H9V5.67324C9 4.7493 9.78305 4.00563 10.7559 4.00563H12.5593C13.2 2.78873 14.5288 2 16 2C17.4712 2 18.8 2.78873 19.4407 4.00563H21.2441C22.2169 4.00563 23 4.7493 23 5.67324L22.9525 10ZM10.4 8.67042H21.5763V5.67324C21.5763 5.49296 21.4102 5.33521 21.2203 5.33521H18.4441L18.278 4.88451C17.9458 3.96056 17.0203 3.32958 15.9763 3.32958C14.9322 3.32958 14.0068 3.96056 13.6746 4.88451L13.5085 5.33521H10.7322C10.5424 5.33521 10.3763 5.49296 10.3763 5.67324V8.67042H10.4Z"></path>
</svg>