<svg xmlns="http://www.w3.org/2000/svg" viewBox="0 0 32 32" class="w2bjnf02h__design-iconfont" width="32" height="32">
  <path d="M13 12.5C13 13.163 13.3161 13.7989 13.8787 14.2678C14.4413 14.7366 15.2044 15 16 15C16.7957 15 17.5587 14.7366 18.1213 14.2678C18.6839 13.7989 19 13.163 19 12.5C19 11.837 18.6839 11.2011 18.1213 10.7322C17.5587 10.2634 16.7957 10 16 10C15.2044 10 14.4413 10.2634 13.8787 10.7322C13.3161 11.2011 13 11.837 13 12.5Z"></path>
  <path d="M15.9446 22.991C17.549 22.9167 23.9442 18.8988 24 11.8857C24 7.53034 20.4186 4 16.0004 4C11.5821 4 8.00074 7.53034 8.00074 11.8857C7.91931 18.328 14.5558 23.2392 15.9446 22.991ZM15.9989 7.53628C18.6197 7.53628 20.7519 9.63814 20.7519 12.2216C20.7519 14.8051 18.6197 16.9069 15.9989 16.9069C13.3781 16.9069 11.2458 14.8066 11.2458 12.2231C11.2458 9.63962 13.3781 7.53628 15.9989 7.53628Z"></path>
  <path d="M23.5496 20.0313C21.7072 22.0196 18.7828 24.6635 15.9218 25.0987C12.8201 24.5554 9.82921 21.445 8.58472 20C5.20997 20.7936 3 22.112 3 23.6068C3 26.0331 8.81944 28 16 28C23.1791 28 29 26.0331 29 23.6068C29 22.1319 26.8476 20.8277 23.5496 20.0313Z"></path>
  <path d="M24 20.1052C23.9062 20.0804 23.811 20.057 23.7143 20.0322C21.8571 22.0756 18.9092 24.793 16.0253 25.2403C12.8988 24.6819 9.88393 21.4851 8.62946 20C5.22768 20.8156 3 22.1707 3 23.7069C3 25.7124 6.79911 27.4124 12.0521 28C17.0625 27.0967 21.3497 24.1674 24 20.1052Z"></path>
  <path d="M11.327 12.2884C11.327 9.68443 13.5126 7.56588 16.199 7.56588C18.2734 7.56588 20.0463 8.82892 20.7495 10.6014C21.3369 9.25293 21.762 7.82058 22 6.32981C20.5161 4.89147 18.465 4 16.2006 4C11.6717 4 8.00072 7.55839 8.00072 11.9483C7.96054 15.1561 9.59896 17.9863 11.4414 20C13.1256 19.2296 14.6826 18.2213 16.0615 17.008C13.4369 16.936 11.327 14.8475 11.327 12.2884Z"></path>
  <path d="M13.3504 8.47268C14.4418 7.11356 15.3339 5.6077 16 4C11.5718 4.05767 8.00075 7.63794 8.00075 12.0484C7.99617 12.3702 8.01297 12.6874 8.04048 13C9.4478 12.2002 10.739 11.2212 11.8835 10.0951C12.241 9.45008 12.7453 8.8946 13.3504 8.47268Z"></path>
  <path d="M8.27903 20C7.00603 20.2704 5.89442 20.6078 5 20.9937C6.51131 21.0318 7.91252 20.8913 9 20.722C8.72097 20.4542 8.47813 20.2087 8.27903 20Z"></path>
</svg>