<svg xmlns="http://www.w3.org/2000/svg" viewBox="0 0 16 16" class="sm3ambyca__design-iconfont" width="32" height="32">
  <path d="M11.0962 0.140325L4.15636 7.19833C3.9216 7.43764 3.79121 7.76022 3.79374 8.09545C3.79626 8.43068 3.93149 8.75126 4.16982 8.98702L11.1416 15.8784C11.2213 15.9547 11.3279 15.9966 11.4382 15.9951C11.5486 15.9936 11.6539 15.9487 11.7315 15.8702C11.8091 15.7918 11.8528 15.6859 11.8531 15.5756C11.8534 15.4652 11.8102 15.3591 11.7331 15.2802L4.76129 8.38882C4.68129 8.30965 4.63585 8.20205 4.63491 8.08951C4.63396 7.97696 4.67758 7.86861 4.75624 7.78811L11.696 0.730104C11.7374 0.691332 11.7705 0.644604 11.7933 0.592728C11.8161 0.540851 11.8282 0.484896 11.8289 0.428221C11.8296 0.371546 11.8188 0.31532 11.7972 0.26292C11.7756 0.21052 11.7436 0.163026 11.7032 0.12329C11.6628 0.0835538 11.6147 0.0523949 11.562 0.0316841C11.5092 0.0109733 11.4528 0.00113774 11.3962 0.00276807C11.3395 0.00439839 11.2838 0.0174609 11.2323 0.0411714C11.1808 0.0648818 11.1346 0.0987512 11.0966 0.140746L11.0962 0.140325Z"></path>
</svg>