<svg xmlns="http://www.w3.org/2000/svg" viewBox="0 0 32 32" class="mqhghz04f__design-iconfont" width="32" height="32">
  <path d="M26.8429 13.847L18.9857 5.23488C18.6714 4.92171 18.2 4.92171 17.8857 5.23488C17.5714 5.54804 17.5714 5.70463 17.5714 6.01779V10.5587C11.1286 10.5587 5 15.8826 5 22.3025C5 24.0249 5.78571 26.2171 6.57143 27C7.51429 22.1459 12.3857 18.3879 17.5714 18.3879C17.5714 18.8577 17.5714 23.0854 17.5714 23.0854C17.5714 23.242 17.5714 23.3986 17.7286 23.7117C18.0429 24.0249 18.6714 23.8683 18.8286 23.7117L26.6857 15.2562C27 14.9431 27 14.6299 27 14.4733C27 14.3167 27 14.0036 26.8429 13.847Z"></path>
</svg>