<svg xmlns="http://www.w3.org/2000/svg" viewBox="0 0 16 16" class="ozrozkd8e__design-iconfont" width="32" height="32">
  <g clip-path="url(#ozrozkd8e__501vm1zmd__clip0_328_2014)">
    <path d="M0.998535 5.36102L1.0433 5.23471C1.15842 4.89095 1.45901 4.66071 1.82516 4.63513C2.15932 4.61114 2.49349 4.80621 2.65018 5.11319C2.81007 5.42657 2.7653 5.79591 2.53346 6.07092C2.50628 6.1013 2.4791 6.13168 2.44872 6.16685C3.09627 6.56338 3.74062 6.9551 4.38177 7.35003C4.6248 7.50032 4.86943 7.65062 5.11246 7.79611C5.25156 7.87766 5.35868 7.85367 5.43383 7.71777C6.17091 6.37471 6.908 5.03005 7.65148 3.6726C7.3301 3.50951 7.12225 3.26009 7.10306 2.89075C7.09027 2.63173 7.18141 2.40948 7.36528 2.22881C7.72982 1.87386 8.3278 1.90744 8.64758 2.30076C9.01532 2.75164 8.88262 3.27928 8.29902 3.6758C8.48929 4.02435 8.68116 4.37451 8.87462 4.72306C9.41025 5.69838 9.94267 6.6705 10.4783 7.64582C10.6014 7.87126 10.6798 7.89205 10.9004 7.76094C11.7286 7.25569 12.5552 6.74725 13.3835 6.2404C13.4218 6.21642 13.4586 6.19244 13.5034 6.16526C13.3323 5.99417 13.2236 5.80071 13.2108 5.56248C13.1868 5.11639 13.4938 4.72626 13.9239 4.65271C14.3716 4.57437 14.7873 4.83019 14.92 5.26349C14.9296 5.29706 14.944 5.33224 14.9568 5.36581V5.6664C14.8161 6.11729 14.5267 6.37951 14.0294 6.3827C14.0118 6.43387 13.9926 6.48503 13.9782 6.5362C13.4938 8.19743 13.0093 9.86187 12.5249 11.5231C12.4625 11.7406 12.3858 11.7965 12.1667 11.7965H3.79977C3.56474 11.7965 3.49279 11.7422 3.42883 11.5231C3.03391 10.1752 2.64378 8.8226 2.24886 7.47474C2.14333 7.11019 2.03461 6.74565 1.92748 6.37951C1.55654 6.37951 1.27674 6.23241 1.10246 5.91263C1.06089 5.83429 1.03371 5.74635 1.00013 5.66321C0.998535 5.55928 0.998535 5.46015 0.998535 5.36102Z"></path>
    <path d="M7.97444 12.6664H11.8837C12.2323 12.6664 12.5105 12.9126 12.5488 13.2436C12.5872 13.5777 12.3682 13.8815 12.0308 13.9567C11.9828 13.9694 11.9317 13.971 11.8837 13.971H4.06198C3.76459 13.971 3.51356 13.7936 3.42722 13.525C3.33769 13.2563 3.42083 12.9526 3.65906 12.7991C3.78217 12.7207 3.94526 12.6664 4.08916 12.6664C5.38585 12.66 6.68094 12.6664 7.97444 12.6664Z"></path>
  </g>
  <defs>
    <linearGradient id="ozrozkd8e__501vm1zmd__paint0_linear_328_2014" x1="7.97765" y1="1.98279" x2="7.97765" y2="11.7965" gradientUnits="userSpaceOnUse">
      <stop stop-color="#FFD7AA"></stop>
      <stop offset="1" stop-color="#FF8900"></stop>
    </linearGradient>
    <linearGradient id="ozrozkd8e__501vm1zmd__paint1_linear_328_2014" x1="7.97264" y1="12.6635" x2="7.97264" y2="13.971" gradientUnits="userSpaceOnUse">
      <stop stop-color="#FFD7AA"></stop>
      <stop offset="1" stop-color="#FF8900"></stop>
    </linearGradient>
    <clipPath id="ozrozkd8e__501vm1zmd__clip0_328_2014">
      <path d="M0 0H16V16H0z"></path>
    </clipPath>
  </defs>
</svg>