<svg xmlns="http://www.w3.org/2000/svg" viewBox="0 0 32 32" class="zc9v6yzfm__design-iconfont" width="32" height="32">
  <path d="M22.6667 3.33334C24.0812 3.33334 25.4377 3.89525 26.4379 4.89544C27.4381 5.89563 28 7.25219 28 8.66668V23.3333C28 24.7478 27.4381 26.1044 26.4379 27.1046C25.4377 28.1048 24.0812 28.6667 22.6667 28.6667H9.33333C7.91885 28.6667 6.56229 28.1048 5.5621 27.1046C4.5619 26.1044 4 24.7478 4 23.3333V8.66668C4 7.25219 4.5619 5.89563 5.5621 4.89544C6.56229 3.89525 7.91885 3.33334 9.33333 3.33334H22.6667ZM21.75 17.27H10.252L10.1473 17.2753C9.40067 17.3533 9.05133 18.2647 9.60467 18.8067L13.2827 22.404L13.3693 22.4787C13.7293 22.7527 14.2493 22.7267 14.5787 22.402L14.6547 22.3173C14.791 22.145 14.8585 21.9282 14.8441 21.709C14.8297 21.4897 14.7344 21.2837 14.5767 21.1307L12.47 19.0687H21.75L21.8567 19.0627C22.0778 19.0391 22.2825 18.9351 22.4319 18.7703C22.5812 18.6056 22.6648 18.3917 22.6667 18.1693C22.6667 17.6727 22.256 17.2693 21.75 17.2693V17.27ZM18.6313 9.52134C18.4539 9.38717 18.2341 9.32112 18.0121 9.33518C17.7901 9.34925 17.5804 9.44251 17.4213 9.59801L17.3453 9.68268C17.209 9.85498 17.1415 10.0718 17.1559 10.291C17.1703 10.5103 17.2656 10.7164 17.4233 10.8693L19.53 12.9313H10.25L10.1433 12.9373C9.92222 12.9609 9.71749 13.0649 9.56812 13.2297C9.41876 13.3944 9.33519 13.6083 9.33333 13.8307C9.33333 14.3273 9.744 14.7307 10.25 14.7307H21.748L21.8527 14.7247C22.5993 14.6467 22.9487 13.7353 22.3953 13.1933L18.7173 9.59601L18.6313 9.52134Z"></path>
</svg>