<svg xmlns="http://www.w3.org/2000/svg" viewBox="0 0 32 32" class="k5abxn2mb__design-iconfont" width="32" height="32">
  <g clip-path="url(#k5abxn2mb__e5w8358s6__clip0_329_2050)">
    <path d="M26.9791 15.0419L17.0621 15.045V5.08804C17.0621 4.53602 16.6141 4.08801 16.062 4.08801C15.51 4.08801 15.0621 4.53602 15.0621 5.08804V15.038L4.98804 15.0325C4.98702 15.0325 4.98605 15.0325 4.98503 15.0325C4.43403 15.0325 3.98704 15.4775 3.985 16.0295C3.98199 16.5815 4.42903 17.0305 4.981 17.0325L15.062 17.038V27.012C15.062 27.565 15.51 28.0121 16.062 28.0121C16.6139 28.0121 17.062 27.5651 17.062 27.012V17.045L26.971 17.0419C26.973 17.0419 26.974 17.0419 26.975 17.0419C27.526 17.0419 27.973 16.5969 27.975 16.0449C27.977 15.4929 27.5301 15.0439 26.9791 15.0419Z"></path>
  </g>
  <defs>
    <clipPath id="k5abxn2mb__e5w8358s6__clip0_329_2050">
      <path d="M0 0H32V32H0z"></path>
    </clipPath>
  </defs>
</svg>