<svg xmlns="http://www.w3.org/2000/svg" viewBox="0 0 24 24" class="7tf7dxa14__design-iconfont" width="32" height="32">
  <g clip-path="url(#7tf7dxa14__j2i8dfso8__clip0_329_3111)">
    <path d="M17.928 5.85602H6.072C2.724 5.85602 0 8.56802 0 11.928C0 15.276 2.724 18 6.072 18H17.928C21.276 18 24 15.276 24 11.928C24 8.56802 21.276 5.85602 17.928 5.85602ZM6.072 17.472C3.012 17.472 0.528 14.988 0.528 11.928C0.528 8.86802 3.012 6.38402 6.072 6.38402C9.132 6.38402 11.616 8.86802 11.616 11.928C11.616 14.988 9.132 17.472 6.072 17.472Z"></path>
  </g>
  <defs>
    <clipPath id="7tf7dxa14__j2i8dfso8__clip0_329_3111">
      <path d="M0 0H24V24H0z"></path>
    </clipPath>
  </defs>
</svg>