<svg xmlns="http://www.w3.org/2000/svg" viewBox="0 0 24 24" class="2ldzsbd1s__design-iconfont" width="32" height="32">
  <g clip-path="url(#2ldzsbd1s__dgzzvz3g8__clip0_329_3115)">
    <path d="M17.928 5.89203H6.072C2.724 5.89203 0 8.61603 0 11.964C0 15.312 2.724 18.036 6.072 18.036H17.928C21.276 18.036 24 15.312 24 11.964C24 8.61603 21.276 5.89203 17.928 5.89203ZM17.928 17.508C14.868 17.508 12.384 15.024 12.384 11.964C12.384 8.90403 14.868 6.42003 17.928 6.42003C20.988 6.42003 23.472 8.90403 23.472 11.964C23.472 15.024 20.988 17.508 17.928 17.508Z"></path>
  </g>
  <defs>
    <clipPath id="2ldzsbd1s__dgzzvz3g8__clip0_329_3115">
      <path d="M0 0H24V24H0z"></path>
    </clipPath>
  </defs>
</svg>