<svg xmlns="http://www.w3.org/2000/svg" viewBox="0 0 32 32" class="nj19n95ex__design-iconfont" width="32" height="32">
  <path d="M18.6993 19.3205C21.4708 18.4164 23.4717 15.8569 23.4717 12.837C23.4717 9.05981 20.3495 6 16.4981 6C12.6466 6 9.52445 9.06101 9.52445 12.837C9.52445 15.7121 11.337 18.1685 13.9012 19.1787C9.07252 20.0913 5.37028 24.0906 5 29H27C26.6447 24.2977 23.2296 20.4402 18.6993 19.3205Z"></path>
  <path d="M8.20181 16V11.6094C8.63031 7.33805 12.1907 4.00116 16.5338 4.00116C20.7417 4.00116 24.2117 7.13554 24.814 11.2139C24.8082 11.2139 24.803 11.2115 24.7973 11.2112V16C25.3959 15.9552 25.9556 15.6835 26.3641 15.2394C26.7727 14.7953 26.9998 14.2117 27 13.6056C27 12.7366 26.5371 11.9846 25.8527 11.5633C25.3989 6.76064 21.4088 3 16.5338 3C11.6739 3 7.6948 6.73729 7.22126 11.5181C6.77432 11.7684 6.41941 12.1577 6.20942 12.6282C5.99943 13.0986 5.94559 13.625 6.05592 14.1288C6.16626 14.6327 6.43487 15.087 6.82172 15.4242C7.20857 15.7614 7.69297 15.9634 8.20273 16H8.20181Z"></path>
</svg>