<svg xmlns="http://www.w3.org/2000/svg" viewBox="0 0 12 12" class="wsfp5psro__design-iconfont" width="32" height="32">
  <g clip-path="url(#wsfp5psro__ew6issdry__clip0_329_2694)">
    <path d="M11.7899 5.844C10.7579 3.588 8.48395 2.13 6.00595 2.13C3.52795 2.13 1.24795 3.588 0.215948 5.844C0.173948 5.94 0.173948 6.04801 0.215948 6.14401C1.24795 8.4 3.52195 9.858 5.99995 9.858C8.47795 9.858 10.7519 8.4 11.7839 6.14401C11.8319 6.04801 11.8319 5.94 11.7899 5.844ZM5.99995 9.138C3.85195 9.138 1.88395 7.90801 0.941948 5.99401C1.88995 4.08001 3.85795 2.85 5.99995 2.85C8.14795 2.85 10.1159 4.08001 11.0579 5.99401C10.1159 7.91401 8.14795 9.138 5.99995 9.138Z"></path>
    <path d="M6.00005 4.20001C5.01005 4.20001 4.20605 5.00401 4.20605 5.99401C4.20605 6.98401 5.01005 7.78801 6.00005 7.78801C6.99005 7.78801 7.79405 6.98401 7.79405 5.99401C7.79405 5.00401 6.99005 4.20001 6.00005 4.20001ZM6.00005 7.06801C5.40605 7.06801 4.92605 6.58801 4.92605 5.99401C4.92605 5.40001 5.40605 4.92001 6.00005 4.92001C6.59405 4.92001 7.08005 5.40001 7.08005 5.99401C7.08005 6.58801 6.59405 7.06801 6.00005 7.06801Z"></path>
  </g>
  <defs>
    <clipPath id="wsfp5psro__ew6issdry__clip0_329_2694">
      <path d="M0 0H12V12H0z"></path>
    </clipPath>
  </defs>
</svg>