<svg xmlns="http://www.w3.org/2000/svg" viewBox="0 0 32 32" class="tmil8v2hs__design-iconfont" width="32" height="32">
  <path d="M25.6742 20.6208L20.1582 16.2187L22.646 13.7312C23.6288 12.7485 23.6288 11.1457 22.646 10.1631L17.2207 4.73837C16.2379 3.75569 14.6349 3.75206 13.6521 4.73837L3.7371 14.6558C2.7543 15.6385 2.7543 17.2413 3.7371 18.224L9.16244 23.645C9.65565 24.1382 10.3012 24.3847 10.9467 24.3847C11.5922 24.3847 12.2378 24.1382 12.731 23.645L15.2188 21.1575L19.6215 26.6728C20.2525 27.4633 21.1809 27.9311 22.2362 27.9927C22.3124 27.9964 22.3885 28 22.461 28C23.6143 28 24.7603 27.5105 25.6343 26.6366C26.5663 25.7047 27.0595 24.4645 26.9943 23.2353C26.9362 22.1801 26.4648 21.2518 25.6742 20.6208ZM11.5669 19.5983C11.1317 20.0334 10.4281 20.0334 9.99292 19.5983L8.18327 17.7888C7.74808 17.3537 7.74808 16.6502 8.18327 16.2151C8.61845 15.7799 9.32201 15.7799 9.7572 16.2151L11.5669 18.0245C11.9984 18.4596 11.9984 19.1667 11.5669 19.5983Z"></path>
</svg>