<svg xmlns="http://www.w3.org/2000/svg" viewBox="0 0 32 32" class="2bhchwfwi__design-iconfont" width="32" height="32">
  <path d="M17.7899 13.7368C17.2802 14.2122 17 14.8378 17 15.5023V16.4977C17 17.1622 17.2802 17.7878 17.7899 18.2632C18.2996 18.7386 18.9702 19 19.6826 19H29V13H19.6826C18.9702 13 18.2966 13.2614 17.7899 13.7368ZM20.7794 14.8879C21.4382 14.8879 21.9717 15.3855 21.9717 16C21.9717 16.6145 21.4382 17.1121 20.7794 17.1121C20.1207 17.1121 19.5872 16.6145 19.5872 16C19.5872 15.3855 20.1207 14.8879 20.7794 14.8879Z"></path>
  <path d="M25.4597 5H6.54321C4.58994 5 3 6.53528 3 8.42766V23.5723C3 25.4619 4.58703 27 6.54321 27H25.4568C27.4101 27 29 25.4647 29 23.5723V20.4399H19.9138C17.6757 20.4399 15.8445 18.6685 15.8445 16.5033V15.4967C15.8445 13.3315 17.6757 11.5601 19.9138 11.5601H29V8.42766C29 6.53809 27.4101 5 25.4597 5Z"></path>
</svg>