<svg xmlns="http://www.w3.org/2000/svg" viewBox="0 0 32 32" class="soe5iqx8a__design-iconfont" width="32" height="32">
  <path d="M29 17.8576V14.143C29.0001 14.0616 28.9841 13.9809 28.9529 13.9057C28.9218 13.8304 28.8761 13.762 28.8185 13.7045C28.7609 13.6469 28.6925 13.6013 28.6172 13.5702C28.5419 13.5391 28.4613 13.5232 28.3798 13.5234H26.9224C26.1714 13.5234 25.4832 13.0755 25.2077 12.3764C25.1647 12.2668 25.1197 12.1582 25.0729 12.0506C24.7732 11.3615 24.9409 10.559 25.4722 10.0277L26.3772 9.12259C26.7486 8.75113 26.746 8.36195 26.5042 8.12013L23.8778 5.4935C23.7617 5.37743 23.6043 5.31222 23.4402 5.31222C23.276 5.31222 23.1186 5.37743 23.0025 5.4935L21.9711 6.52503C21.4398 7.05634 20.6368 7.22492 19.9478 6.92526C19.8402 6.87837 19.7317 6.83341 19.622 6.79039C18.9245 6.51573 18.4752 5.82863 18.4752 5.07758V3.79871C18.4752 3.27321 18.198 3 17.8562 3H14.1435C14.0622 3 13.9817 3.01601 13.9066 3.04713C13.8315 3.07824 13.7633 3.12384 13.7058 3.18133C13.6483 3.23881 13.6027 3.30706 13.5716 3.38217C13.5405 3.45729 13.5245 3.53779 13.5245 3.61909V5.07787C13.5245 5.82892 13.0767 6.51718 12.3777 6.79272C12.2681 6.83574 12.1595 6.88069 12.0519 6.92758C11.3629 7.22725 10.5599 7.05896 10.0286 6.52735L8.99723 5.49583C8.88114 5.37975 8.72371 5.31454 8.55956 5.31454C8.3954 5.31454 8.23797 5.37975 8.12188 5.49583L5.49555 8.12245C5.37949 8.23855 5.31428 8.396 5.31428 8.56018C5.31428 8.72435 5.37949 8.8818 5.49555 8.9979L6.52696 10.0294C7.05821 10.5607 7.22677 11.3638 6.92714 12.0529C6.88026 12.1605 6.83531 12.2691 6.7923 12.3788C6.51766 13.0763 5.82976 13.5257 5.07764 13.5257H3.61902C3.53773 13.5257 3.45723 13.5417 3.38213 13.5728C3.30703 13.6039 3.23879 13.6495 3.18131 13.707C3.12383 13.7645 3.07823 13.8327 3.04712 13.9079C3.01601 13.983 3 14.0635 3 14.1448V17.8593C3.00046 18.0232 3.06588 18.1802 3.18192 18.2959C3.29796 18.4117 3.45515 18.4766 3.61902 18.4766H5.07764C5.8286 18.4766 6.51679 18.9245 6.7923 19.6236C6.83531 19.7332 6.88026 19.8418 6.92714 19.9494C7.22677 20.6385 7.0585 21.4416 6.52696 21.9729L5.49555 23.0044C5.37949 23.1205 5.31428 23.278 5.31428 23.4421C5.31428 23.6063 5.37949 23.7638 5.49555 23.8799L8.12188 26.5065C8.23797 26.6226 8.3954 26.6878 8.55956 26.6878C8.72371 26.6878 8.88114 26.6226 8.99723 26.5065L10.0286 25.475C10.5599 24.9437 11.3629 24.7751 12.0519 25.0747C12.1595 25.1216 12.2681 25.1666 12.3777 25.2096C13.0752 25.4843 13.5245 26.1714 13.5245 26.9224V28.2013C13.5245 28.7268 13.8018 29 14.1435 29H17.8576C18.0218 29 18.1793 28.9348 18.2954 28.8187C18.4114 28.7026 18.4767 28.5451 18.4767 28.3809V26.9224C18.4767 26.1714 18.9245 25.4831 19.6234 25.2076C19.7331 25.1646 19.8417 25.1196 19.9492 25.0727C20.6383 24.773 21.4413 24.9413 21.9725 25.4729L23.0034 26.5068C23.1194 26.6229 23.2769 26.6881 23.441 26.6881C23.6052 26.6881 23.7626 26.6229 23.8787 26.5068L26.505 23.8802C26.6211 23.7641 26.6863 23.6066 26.6863 23.4424C26.6863 23.2783 26.6211 23.1208 26.505 23.0047L25.4736 21.9729C24.9424 21.4416 24.7738 20.6385 25.0734 19.9494C25.1203 19.8418 25.1653 19.7332 25.2083 19.6236C25.4829 18.926 26.1708 18.4766 26.9229 18.4766H28.3798C28.4612 18.4768 28.5418 18.4609 28.6171 18.4299C28.6923 18.3988 28.7607 18.3532 28.8183 18.2957C28.8759 18.2382 28.9216 18.1699 28.9528 18.0947C28.984 18.0196 29 17.939 29 17.8576ZM15.9994 19.7142C15.2648 19.7142 14.5467 19.4964 13.936 19.0882C13.3252 18.6801 12.8491 18.0999 12.568 17.4212C12.2869 16.7425 12.2134 15.9956 12.3567 15.275C12.5 14.5545 12.8537 13.8926 13.3731 13.3731C13.8926 12.8536 14.5544 12.4999 15.2748 12.3565C15.9953 12.2132 16.7421 12.2868 17.4208 12.5679C18.0994 12.8491 18.6795 13.3252 19.0876 13.936C19.4957 14.5469 19.7135 15.265 19.7135 15.9997C19.7135 16.9849 19.3222 17.9297 18.6257 18.6263C17.9292 19.3229 16.9845 19.7142 15.9994 19.7142Z"></path>
</svg>