<svg xmlns="http://www.w3.org/2000/svg" viewBox="0 0 12 12" class="bystb8ci0__design-iconfont" width="32" height="32">
  <g clip-path="url(#bystb8ci0__2z98ujty0__clip0_329_3453)">
    <path d="M6 0.75C7.39239 0.75 8.72774 1.30312 9.71231 2.28769C10.6969 3.27226 11.25 4.60761 11.25 6C11.25 7.39239 10.6969 8.72774 9.71231 9.71231C8.72774 10.6969 7.39239 11.25 6 11.25C4.60761 11.25 3.27226 10.6969 2.28769 9.71231C1.30312 8.72774 0.75 7.39239 0.75 6C0.75 4.60761 1.30312 3.27226 2.28769 2.28769C3.27226 1.30312 4.60761 0.75 6 0.75ZM6 1.41C5.39723 1.41 4.80037 1.52872 4.24348 1.75939C3.6866 1.99006 3.1806 2.32816 2.75438 2.75438C2.32816 3.1806 1.99006 3.6866 1.75939 4.24348C1.52872 4.80037 1.41 5.39723 1.41 6C1.41 6.60277 1.52872 7.19963 1.75939 7.75652C1.99006 8.3134 2.32816 8.8194 2.75438 9.24562C3.1806 9.67184 3.6866 10.0099 4.24348 10.2406C4.80037 10.4713 5.39723 10.59 6 10.59C7.21734 10.59 8.38483 10.1064 9.24562 9.24562C10.1064 8.38483 10.59 7.21734 10.59 6C10.59 4.78266 10.1064 3.61517 9.24562 2.75438C8.38483 1.89359 7.21734 1.41 6 1.41ZM6 7.5C6.14918 7.5 6.29226 7.55926 6.39775 7.66475C6.50324 7.77024 6.5625 7.91332 6.5625 8.0625C6.5625 8.21168 6.50324 8.35476 6.39775 8.46025C6.29226 8.56574 6.14918 8.625 6 8.625C5.85082 8.625 5.70774 8.56574 5.60225 8.46025C5.49676 8.35476 5.4375 8.21168 5.4375 8.0625C5.4375 7.91332 5.49676 7.77024 5.60225 7.66475C5.70774 7.55926 5.85082 7.5 6 7.5ZM6.28125 3.375C6.333 3.375 6.375 3.417 6.375 3.46875V6.65625C6.375 6.68111 6.36512 6.70496 6.34754 6.72254C6.32996 6.74012 6.30611 6.75 6.28125 6.75H5.71875C5.69389 6.75 5.67004 6.74012 5.65246 6.72254C5.63488 6.70496 5.625 6.68111 5.625 6.65625V3.46875C5.625 3.417 5.667 3.375 5.71875 3.375H6.28125Z"></path>
  </g>
  <defs>
    <clipPath id="bystb8ci0__2z98ujty0__clip0_329_3453">
      <path d="M0 0H12V12H0z"></path>
    </clipPath>
  </defs>
</svg>