<svg xmlns="http://www.w3.org/2000/svg" viewBox="0 0 12 12" class="7u3yqjvqy__design-iconfont" width="32" height="32">
  <g clip-path="url(#7u3yqjvqy__9q27n22al__clip0_325_1258)">
    <path d="M10.1087 9.5737L8.51297 7.97796L8.51228 7.9773C8.78572 7.65357 9.00867 7.29038 9.17357 6.90003C9.39417 6.37846 9.50602 5.82464 9.50602 5.25393C9.50602 4.68322 9.39417 4.1294 9.17357 3.60784C8.96057 3.10425 8.65572 2.65205 8.26749 2.26382C7.87925 1.87559 7.42706 1.57073 6.92347 1.35773C6.4019 1.13712 5.84807 1.02527 5.27737 1.02527C4.70666 1.02527 4.15284 1.13712 3.63127 1.35773C3.12768 1.57073 2.67549 1.87558 2.28726 2.26382C1.89902 2.65205 1.59417 3.10426 1.38117 3.60784C1.16056 4.1294 1.04871 4.68323 1.04871 5.25393C1.04871 5.82464 1.16056 6.37846 1.38117 6.90003C1.59417 7.40363 1.89902 7.85582 2.28726 8.24405C2.67549 8.63228 3.12769 8.93715 3.63127 9.15014C4.15284 9.37073 4.70667 9.48259 5.27737 9.48259C5.84807 9.48259 6.4019 9.37073 6.92347 9.15014C7.30761 8.98767 7.66171 8.77159 7.98046 8.50598C7.9812 8.50673 7.98189 8.50753 7.98264 8.50827L9.57837 10.104C9.65162 10.1772 9.74757 10.2138 9.84354 10.2138C9.9395 10.2138 10.0355 10.1772 10.1087 10.104C10.2551 9.95758 10.2551 9.72014 10.1087 9.5737ZM5.27737 8.75964C4.34096 8.75964 3.4606 8.39498 2.79846 7.73285C2.13631 7.0707 1.77166 6.19034 1.77166 5.25393C1.77166 4.31752 2.13631 3.43716 2.79846 2.77502C3.46059 2.11287 4.34095 1.74822 5.27737 1.74822C6.21379 1.74822 7.09414 2.11287 7.75628 2.77502C8.41842 3.43715 8.78308 4.31751 8.78308 5.25393C8.78308 6.19035 8.41842 7.0707 7.75628 7.73285C7.09414 8.39498 6.21378 8.75964 5.27737 8.75964Z"></path>
  </g>
  <defs>
    <clipPath id="7u3yqjvqy__9q27n22al__clip0_325_1258">
      <path d="M0 0H12V12H0z"></path>
    </clipPath>
  </defs>
</svg>