<svg xmlns="http://www.w3.org/2000/svg" viewBox="0 0 32 32" class="o8xuedfj7__design-iconfont" width="32" height="32">
  <path d="M18.7627 14.3887C20.5225 14.3887 22.2396 14.3794 23.9564 14.396C24.3317 14.3996 24.722 14.4468 25.0774 14.56C26.269 14.94 27.0618 16.299 26.7953 17.5415C26.1622 20.4935 25.4856 23.4362 24.8576 26.3892C24.6827 27.2115 24.4532 27.9703 23.7282 28.4888C23.3294 28.774 22.9156 28.999 22.399 28.9987C17.8343 28.9947 13.2692 28.997 8.70452 28.997C8.64008 28.997 8.57564 28.9884 8.46353 28.9801C8.45514 28.8413 8.43937 28.7056 8.43937 28.5698C8.44406 24.2369 8.45279 19.904 8.45078 15.5711C8.45078 15.2853 8.52227 15.1814 8.82837 15.1322C11.3655 14.7263 13.4763 12.4239 13.673 9.8868C13.7271 9.19204 13.7318 8.49627 14.0315 7.83238C14.8108 6.10691 16.9254 6.02492 18.0555 7.06591C18.5845 7.55321 18.8755 8.15901 19.0007 8.8581C19.3209 10.6456 19.2799 12.4169 18.7865 14.1719C18.7728 14.22 18.7748 14.2725 18.7627 14.3887ZM7.09546 16.4282C7.09311 15.6926 6.69638 15.2667 5.97173 15.2521C5.01515 15.2328 4.05723 15.2312 3.10065 15.2534C2.41292 15.2697 2.00646 15.6899 2.00512 16.3717C1.99841 20.21 1.99807 24.0483 2.00545 27.8867C2.0068 28.5887 2.43373 28.9907 3.14227 28.996C4.03374 29.0027 4.92553 28.9993 5.817 28.9977C6.71652 28.996 7.0968 28.614 7.09747 27.7094C7.09881 25.8422 7.09781 23.975 7.09781 22.1075C7.09747 20.2147 7.10116 18.3213 7.09546 16.4282ZM22.6766 12.151C23.3992 11.8589 24.1182 11.5572 24.8475 11.2833C24.9996 11.2262 25.2107 11.2226 25.3614 11.2793C26.0904 11.5542 26.8084 11.8586 27.5303 12.152C28.0955 12.3817 28.3234 12.2161 28.2738 11.6186C28.2103 10.8601 28.1372 10.1019 28.1019 9.34208C28.0935 9.16017 28.1751 8.93743 28.2912 8.79337C28.7779 8.18889 29.2948 7.60865 29.7972 7.01678C30.1342 6.61944 30.051 6.34359 29.5489 6.21945C28.7799 6.02924 28.0049 5.8636 27.24 5.65912C27.0718 5.6143 26.8889 5.48186 26.7932 5.33779C26.3512 4.67323 25.9404 3.98876 25.5131 3.3149C25.2486 2.89765 24.9553 2.89466 24.6958 3.30827C24.2776 3.97448 23.8584 4.64037 23.459 5.31721C23.3358 5.52601 23.1801 5.62891 22.9498 5.68069C22.1768 5.85364 21.4062 6.03621 20.6369 6.22509C20.1408 6.34691 20.0606 6.60816 20.3909 6.99355C20.8964 7.58309 21.3931 8.18059 21.9181 8.75254C22.1134 8.96532 22.15 9.1761 22.1231 9.44199C22.0493 10.1763 21.9946 10.9125 21.9325 11.6478C21.9063 12.2317 22.1194 12.3761 22.6766 12.151Z"></path>
</svg>