<svg xmlns="http://www.w3.org/2000/svg" viewBox="0 0 32 32" class="tglkld5tp__design-iconfont" width="32" height="32">
  <path d="M15.842 10.81C16.6313 10.81 17.1587 10.2814 17.1587 9.4942C17.1587 8.69804 16.6322 8.18307 15.842 8.18307C15.0514 8.18307 14.2586 8.69807 14.2586 9.4942C14.2595 10.2818 15.0526 10.81 15.842 10.81ZM8.47682 8.18304C7.68748 8.18304 6.88963 8.69804 6.88963 9.49417C6.88963 10.2814 7.68751 10.81 8.47682 10.81C9.26316 10.81 9.7897 10.2814 9.7897 9.49417C9.78926 8.69801 9.26363 8.18304 8.47682 8.18304ZM31.583 19.2341C31.583 15.0716 27.7216 11.5247 22.9818 11.1556C22.9882 11.104 22.9912 11.0502 22.9797 10.9965C22.0295 6.56557 17.2645 3.22479 11.8953 3.22479C5.82813 3.22479 0.891602 7.45564 0.891602 12.6558C0.891602 15.4458 2.31579 17.9597 5.01491 19.942L4.0741 22.7704C4.01351 22.9543 4.06857 23.1569 4.21491 23.2845C4.30407 23.3613 4.41632 23.4014 4.52979 23.4014C4.60276 23.4014 4.67657 23.3844 4.74438 23.3506L8.27676 21.583L8.71195 21.6713C9.79951 21.8949 10.7386 22.0886 11.8953 22.0886C12.2358 22.0886 13.1728 21.964 13.2517 21.8642C14.5253 25.0514 18.0359 27.352 22.1665 27.352C23.2246 27.352 24.2955 27.0969 25.2568 26.8562L27.9798 28.3448C28.0519 28.3841 28.1313 28.4045 28.2098 28.4045C28.3173 28.4045 28.4248 28.3682 28.511 28.2979C28.6625 28.175 28.7248 27.9727 28.6684 27.7875L27.973 25.475C30.3043 23.6327 31.583 21.4285 31.583 19.2341H31.583ZM12.8062 20.8047C12.5054 20.8307 12.2004 20.8435 11.8974 20.8435C10.876 20.8435 10.012 20.6669 9.01273 20.4604L8.43204 20.3431C8.3322 20.3217 8.22682 20.3354 8.13507 20.3827L5.58235 21.6606L6.24582 19.6676C6.3107 19.4726 6.23941 19.2597 6.07176 19.142C3.50707 17.3543 2.20741 15.1765 2.20741 12.6703C2.20741 8.16473 6.55388 4.49795 11.897 4.49795C16.6202 4.49795 20.802 7.37154 21.6651 11.1936C16.7128 11.2585 12.7055 14.7401 12.7055 19.0161C12.7055 19.6378 12.7999 20.2402 12.959 20.8213C12.9108 20.8094 12.86 20.8 12.8063 20.8047H12.8062ZM26.8866 24.6469C26.7343 24.7616 26.6699 24.9596 26.7245 25.1422L27.1559 26.5767L25.3857 25.6082C25.3183 25.571 25.2423 25.5518 25.1668 25.5518C25.1297 25.5518 25.0921 25.5565 25.0554 25.5663C24.1061 25.8061 23.1235 26.0536 22.1669 26.0536C17.7236 26.0536 14.1089 22.9999 14.1089 19.247C14.1089 15.494 17.7232 12.4417 22.1669 12.4417C26.5253 12.4417 30.2083 15.558 30.2083 19.247C30.2083 21.1179 29.029 23.0362 26.8867 24.6469L26.8866 24.6469ZM19.2642 15.8127C18.7377 15.8127 18.2112 16.343 18.2112 16.8687C18.2112 17.3982 18.7377 17.9209 19.2642 17.9209C20.0553 17.9209 20.5779 17.3982 20.5779 16.8687C20.5779 16.3422 20.0553 15.8127 19.2642 15.8127ZM25.0494 15.8127C24.5306 15.8127 24.0041 16.343 24.0041 16.8687C24.0041 17.3982 24.5306 17.9209 25.0494 17.9209C25.8379 17.9209 26.3699 17.3982 26.3699 16.8687C26.3699 16.3422 25.8388 15.8127 25.0494 15.8127Z"></path>
</svg>