<svg xmlns="http://www.w3.org/2000/svg" viewBox="0 0 16 16" class="9bcfzr8w1__design-iconfont" width="32" height="32">
  <g clip-path="url(#9bcfzr8w1__7xi43bm65__clip0_330_1407)">
    <path d="M13.9941 5.43457C13.9941 5.54113 13.9915 5.64236 13.9862 5.73826C13.9808 5.83417 13.9728 5.9354 13.9622 6.04196C13.8663 6.92641 13.6718 7.77622 13.3788 8.59141C13.0857 9.40659 12.7154 10.1898 12.2679 10.9411C11.8203 11.6923 11.3035 12.4143 10.7174 13.1069C10.1313 13.7995 9.49731 14.4655 8.81532 15.1049C8.71942 15.2221 8.59688 15.2807 8.44769 15.2807C8.28785 15.2807 8.15998 15.2221 8.06408 15.1049C7.38209 14.4655 6.74539 13.7942 6.15399 13.0909C5.56258 12.3876 5.04043 11.6523 4.58755 10.8851C4.13467 10.1179 3.76171 9.32135 3.46867 8.4955C3.17563 7.66966 2.98649 6.80919 2.90124 5.91409C2.90124 5.82884 2.89857 5.74892 2.89325 5.67433C2.88792 5.59973 2.88525 5.51981 2.88525 5.43457C2.88525 4.68864 3.03177 3.98535 3.32481 3.32468C3.61785 2.664 4.01479 2.08858 4.51562 1.5984C5.01646 1.10823 5.6052 0.719281 6.28186 0.431568C6.95851 0.143856 7.68046 0 8.44769 0C9.21492 0 9.93421 0.143856 10.6055 0.431568C11.2769 0.719281 11.8629 1.10823 12.3638 1.5984C12.8646 2.08858 13.2615 2.664 13.5546 3.32468C13.8476 3.98535 13.9941 4.68864 13.9941 5.43457ZM8.44769 7.92807C8.79934 7.92807 9.12968 7.86147 9.4387 7.72827C9.74773 7.59507 10.0168 7.41658 10.2459 7.19281C10.475 6.96903 10.6562 6.70529 10.7894 6.4016C10.9226 6.0979 10.9892 5.77556 10.9892 5.43457C10.9892 5.09357 10.9226 4.77123 10.7894 4.46753C10.6562 4.16384 10.475 3.9001 10.2459 3.67632C10.0168 3.45255 9.74773 3.27406 9.4387 3.14086C9.12968 3.00766 8.79934 2.94106 8.44769 2.94106C8.09604 2.94106 7.76571 3.00766 7.45668 3.14086C7.14766 3.27406 6.87593 3.45255 6.6415 3.67632C6.40707 3.9001 6.22325 4.16384 6.09005 4.46753C5.95685 4.77123 5.89025 5.09357 5.89025 5.43457C5.89025 5.77556 5.95685 6.0979 6.09005 6.4016C6.22325 6.70529 6.40707 6.96903 6.6415 7.19281C6.87593 7.41658 7.14766 7.59507 7.45668 7.72827C7.76571 7.86147 8.09604 7.92807 8.44769 7.92807Z"></path>
  </g>
  <defs>
    <clipPath id="9bcfzr8w1__7xi43bm65__clip0_330_1407">
      <path d="M0 0H16V16H0z"></path>
    </clipPath>
  </defs>
</svg>