<svg xmlns="http://www.w3.org/2000/svg" viewBox="0 0 32 32" class="5ltswg4th__design-iconfont" width="32" height="32">
  <path d="M16.0183 6C9.91398 6 5 10.0717 5 15.0915C5 18.1826 6.88148 20.9103 9.72215 22.5828V25.3827C9.72215 25.7461 9.99023 26 10.337 26C10.4526 26 10.5682 25.9627 10.6444 25.9278L13.6376 24.0363C14.4049 24.1808 15.1723 24.218 15.979 24.218C22.0858 24.218 26.9998 20.1463 26.9998 15.1265C27.0367 10.0717 22.0858 6 16.0183 6ZM11.065 16.5823C10.3346 16.5823 9.75904 16 9.75904 15.3454C9.75904 14.6536 10.3739 14.1085 11.065 14.1085C11.7955 14.1085 12.371 14.6909 12.371 15.3454C12.4079 16 11.7955 16.5823 11.065 16.5823ZM16.0946 16.5823C15.3641 16.5823 14.7886 16 14.7886 15.3454C14.7886 14.6536 15.4035 14.1085 16.0946 14.1085C16.825 14.1085 17.4006 14.6909 17.4006 15.3454C17.4006 16 16.7857 16.5823 16.0946 16.5823ZM20.9323 16.5823C20.2019 16.5823 19.6264 16 19.6264 15.3454C19.6264 14.6536 20.2412 14.1085 20.9323 14.1085C21.6628 14.1085 22.2383 14.6909 22.2383 15.3454C22.2383 16 21.6628 16.5823 20.9323 16.5823Z"></path>
</svg>