<svg xmlns="http://www.w3.org/2000/svg" viewBox="0 0 32 32" class="rvsie0sri__design-iconfont" width="32" height="32">
  <path d="M13.6252 9.36154H18.3751C18.3751 9.36154 21.2499 8.59569 20.1251 6.29785C19.2501 4.51077 17.7499 5.65969 17.7499 5.65969C17.7499 5.65969 17.8755 4 16.0002 4C14.1254 4 14.2501 5.78708 14.2501 5.78708C14.2501 5.78708 12.7502 4.63815 11.8752 6.42554C10.8755 8.59569 13.6252 9.36154 13.6252 9.36154ZM18.6249 10H13.3748C9.37496 11.7871 6 15.6169 6 20.2126C6 25.8298 10.1252 28 16.0002 28C21.8751 28 26 25.8298 26 20.2126C26 15.6169 22.625 11.7874 18.6252 10H18.6249ZM19.4999 19.5745C19.8747 19.5745 20.1248 19.8298 20.1248 20.2129C20.1248 20.5957 19.8747 20.8511 19.4996 20.8511H16.6248V24.4255C16.6248 24.8086 16.3747 25.064 15.9996 25.064C15.6247 25.064 15.3746 24.8086 15.3746 24.4255V20.8511H12.4998C12.1247 20.8511 11.8746 20.5957 11.8746 20.2126C11.8746 19.8298 12.1247 19.5745 12.4998 19.5745H15.4997V17.7874H12.5004C12.1253 17.7874 11.8752 17.532 11.8752 17.1489C11.8752 16.7658 12.1253 16.5108 12.5004 16.5108H14.7503L12.6252 13.9575C12.3754 13.7022 12.3754 13.3191 12.6252 13.1914C12.8753 12.936 13.2504 12.936 13.5002 13.1914L16.0004 16.2554L18.5004 13.1914C18.7502 12.936 19.1253 12.936 19.3754 13.1914C19.6255 13.4468 19.6255 13.8298 19.5005 14.0852L17.2503 16.6382H19.5005C19.8753 16.6382 20.1254 16.8935 20.1254 17.2766C20.1254 17.6597 19.8753 17.9151 19.5002 17.9151H16.6254V19.7022H19.5002V19.5745H19.4999Z"></path>
</svg>