<svg xmlns="http://www.w3.org/2000/svg" viewBox="0 0 16 16" class="qiabnqfzy__design-iconfont" width="32" height="32">
  <g clip-path="url(#qiabnqfzy__birm296qr__clip0_327_1437)">
    <path d="M8.00728 0.00183105C3.60328 0.00183105 0.0189209 3.58583 0.0189209 7.99019C0.0189209 12.3946 3.60292 15.9789 8.00728 15.9789C12.4116 15.9789 15.996 12.3949 15.996 7.99019C15.9956 3.58583 12.4116 0.00183105 8.00728 0.00183105ZM12.4775 6.45856L7.28147 11.7847C7.21981 11.8476 7.14627 11.8976 7.06511 11.9318C6.98396 11.9661 6.89681 11.9838 6.80874 11.984H6.8051C6.62872 11.9842 6.45947 11.9144 6.33456 11.7898L3.54219 8.99565C3.4803 8.93387 3.4312 8.8605 3.3977 8.77973C3.3642 8.69895 3.34696 8.61237 3.34696 8.52492C3.34696 8.43748 3.3642 8.35089 3.3977 8.27012C3.4312 8.18934 3.4803 8.11597 3.54219 8.05419C3.60397 7.9923 3.67734 7.9432 3.75812 7.9097C3.83889 7.8762 3.92548 7.85896 4.01292 7.85896C4.10037 7.85896 4.18695 7.8762 4.26773 7.9097C4.3485 7.9432 4.42187 7.9923 4.48365 8.05419L6.80183 10.3706L11.5255 5.52583C11.649 5.39982 11.8175 5.32792 11.9939 5.32587C12.1704 5.32383 12.3405 5.39181 12.4669 5.51492C12.593 5.63889 12.6649 5.80774 12.6669 5.98456C12.6689 6.16139 12.6008 6.3318 12.4775 6.45856Z"></path>
  </g>
  <defs>
    <clipPath id="qiabnqfzy__birm296qr__clip0_327_1437">
      <path d="M0 0H16V16H0z"></path>
    </clipPath>
  </defs>
</svg>