<svg xmlns="http://www.w3.org/2000/svg" viewBox="0 0 16 16" class="3pw8a32hg__design-iconfont" width="32" height="32">
  <g clip-path="url(#3pw8a32hg__s1n8qala5__clip0_327_1967)">
    <path d="M8.00029 9.08906C5.16296 9.08906 2.51668 7.69156 1.09428 5.44099C0.953031 5.21823 1.01961 4.92269 1.24299 4.78206C1.46576 4.64019 1.7613 4.70739 1.90192 4.93078C3.15071 6.90632 5.48777 8.13332 8.00029 8.13332C10.5128 8.13332 12.8492 6.9063 14.098 4.93076C14.2387 4.70739 14.5342 4.64019 14.757 4.78204C14.9804 4.92267 15.0469 5.21821 14.9057 5.44097C13.4833 7.69154 10.837 9.08906 8.00029 9.08906Z"></path>
    <path d="M5.54196 11.2923C5.51459 11.2923 5.4872 11.2898 5.4592 11.2855C5.19912 11.2401 5.02489 10.9924 5.07031 10.7323L5.44177 8.60496C5.48782 8.34487 5.73421 8.17626 5.99492 8.21608C6.255 8.2615 6.42923 8.50914 6.3838 8.76922L6.01234 10.8966C5.97128 11.1287 5.76969 11.2923 5.54196 11.2923Z"></path>
    <path d="M10.4045 11.2923C10.183 11.2923 9.98388 11.1368 9.93722 10.9109L9.49794 8.78355C9.44442 8.52533 9.61056 8.27272 9.8694 8.2192C10.1239 8.16756 10.3802 8.33183 10.4337 8.59066L10.873 10.718C10.9266 10.9763 10.7604 11.2289 10.5016 11.2824C10.4692 11.2892 10.4369 11.2923 10.4045 11.2923Z"></path>
    <path d="M2.29896 9.72184C2.2442 9.72184 2.18882 9.7125 2.13531 9.69259C1.88705 9.60237 1.75948 9.32798 1.85033 9.08034L2.62749 6.95234C2.71771 6.70345 2.99273 6.57589 3.23974 6.66737C3.48801 6.75759 3.61557 7.03198 3.52472 7.27962L2.74757 9.40762C2.67726 9.60176 2.49371 9.72184 2.29896 9.72184Z"></path>
    <path d="M13.6476 10.0765C13.4578 10.0765 13.278 9.96269 13.2033 9.77476L12.359 7.64677C12.2619 7.40161 12.382 7.1241 12.6271 7.02642C12.8723 6.92873 13.1498 7.04882 13.2475 7.29459L14.0918 9.42259C14.1889 9.66775 14.0694 9.94526 13.8237 10.0429C13.7658 10.066 13.7061 10.0765 13.6476 10.0765Z"></path>
  </g>
  <defs>
    <clipPath id="3pw8a32hg__s1n8qala5__clip0_327_1967">
      <path d="M0 0H16V16H0z"></path>
    </clipPath>
  </defs>
</svg>