<svg xmlns="http://www.w3.org/2000/svg" viewBox="0 0 32 32" class="u0p1nnlgn__design-iconfont" width="32" height="32">
  <path d="M26.1111 27H5.88889C5.12271 27 4.38791 26.7103 3.84614 26.1945C3.30436 25.6788 3 24.9793 3 24.25V7.75C3 7.02065 3.30436 6.32118 3.84614 5.80546C4.38791 5.28973 5.12271 5 5.88889 5H26.1111C26.8773 5 27.6121 5.28973 28.1539 5.80546C28.6956 6.32118 29 7.02065 29 7.75V24.25C29 24.9793 28.6956 25.6788 28.1539 26.1945C27.6121 26.7103 26.8773 27 26.1111 27ZM27.5556 7.75C27.5556 7.38533 27.4034 7.03559 27.1325 6.77773C26.8616 6.51987 26.4942 6.375 26.1111 6.375H5.88889C5.5058 6.375 5.1384 6.51987 4.86751 6.77773C4.59663 7.03559 4.44444 7.38533 4.44444 7.75V24.25C4.44444 24.6147 4.59663 24.9644 4.86751 25.2223C5.1384 25.4801 5.5058 25.625 5.88889 25.625H26.1111C26.4942 25.625 26.8616 25.4801 27.1325 25.2223C27.4034 24.9644 27.5556 24.6147 27.5556 24.25V7.75Z"></path>
  <path d="M3.72222 9H28.2778C28.4693 9 28.653 9.07746 28.7885 9.21535C28.9239 9.35324 29 9.54025 29 9.73525C29 9.93025 28.9239 10.1173 28.7885 10.2552C28.653 10.393 28.4693 10.4705 28.2778 10.4705H3.72222C3.53068 10.4705 3.34698 10.393 3.21153 10.2552C3.07609 10.1173 3 9.93025 3 9.73525C3 9.54025 3.07609 9.35324 3.21153 9.21535C3.34698 9.07746 3.53068 9 3.72222 9ZM11.2247 18.0568L12.3311 17.112L14.6523 19.9281L21.2917 14.2571L22.2198 15.3835L15.6757 20.9736L14.4739 22L11.2247 18.0568Z"></path>
</svg>