<svg xmlns="http://www.w3.org/2000/svg" viewBox="0 0 32 32" class="cgvkd6qsy__design-iconfont" width="32" height="32">
  <path d="M25.2285 4H6.77178C4.68857 4 3 5.68626 3 7.76663V21.0979C3 23.1783 4.68857 24.8645 6.77178 24.8645H12.614L15.5797 27.8261C15.8118 28.058 16.1882 28.058 16.4203 27.8261L19.386 24.8645H25.2282C27.3114 24.8645 29 23.1783 29 21.0979V7.76663C29.0003 5.68626 27.3117 4 25.2285 4ZM8.49982 16.6057C7.29788 16.6057 6.32345 15.6326 6.32345 14.4323C6.32345 13.232 7.29788 12.2589 8.49982 12.2589C9.70175 12.2589 10.6762 13.232 10.6762 14.4323C10.6762 15.6326 9.70204 16.6057 8.49982 16.6057ZM15.9671 16.6057C14.7651 16.6057 13.7907 15.6326 13.7907 14.4323C13.7907 13.232 14.7651 12.2589 15.9671 12.2589C17.169 12.2589 18.1434 13.232 18.1434 14.4323C18.1434 15.6326 17.1693 16.6057 15.9671 16.6057ZM23.5005 16.6057C22.2985 16.6057 21.3241 15.6326 21.3241 14.4323C21.3241 13.232 22.2985 12.2589 23.5005 12.2589C24.7024 12.2589 25.6768 13.232 25.6768 14.4323C25.6768 15.6326 24.7024 16.6057 23.5005 16.6057Z"></path>
</svg>