<svg xmlns="http://www.w3.org/2000/svg" viewBox="0 0 32 32" class="z9i0i9zce__design-iconfont" width="32" height="32">
  <path d="M28.5082 11.9763C28.6451 11.9579 28.7706 11.8889 28.8612 11.7823C28.9518 11.6756 29.0012 11.5387 29 11.3974V7.31578C29 7.01167 28.9415 6.71053 28.8279 6.42956C28.7143 6.1486 28.5477 5.89331 28.3378 5.67827C28.1278 5.46323 27.8786 5.29265 27.6043 5.17627C27.33 5.05989 27.036 5 26.7391 5H5.26092C4.96402 5 4.67002 5.05989 4.39572 5.17627C4.12142 5.29265 3.87218 5.46323 3.66223 5.67827C3.45229 5.89331 3.28576 6.1486 3.17214 6.42956C3.05852 6.71053 3.00004 7.01167 3.00004 7.31578V11.9937C2.99849 12.1333 3.04626 12.2688 3.13455 12.3752C3.22285 12.4816 3.3457 12.5517 3.48049 12.5726C4.28887 12.6906 5.02854 13.1034 5.56366 13.7352C6.09877 14.3669 6.39338 15.1752 6.39338 16.0116C6.39338 16.848 6.09877 17.6563 5.56366 18.288C5.02854 18.9198 4.28887 19.3326 3.48049 19.4505C3.34571 19.4715 3.22285 19.5416 3.13456 19.648C3.04627 19.7544 2.9985 19.8899 3.00004 20.0295V24.6842C3.00004 24.9883 3.05852 25.2895 3.17214 25.5704C3.28576 25.8514 3.45229 26.1067 3.66223 26.3217C3.87218 26.5368 4.12142 26.7074 4.39572 26.8237C4.67002 26.9401 4.96402 27 5.26092 27H26.7391C27.036 27 27.33 26.9401 27.6043 26.8237C27.8786 26.7074 28.1278 26.5368 28.3378 26.3217C28.5477 26.1067 28.7143 25.8514 28.8279 25.5704C28.9415 25.2895 29 24.9883 29 24.6842V20.591C29.0012 20.4497 28.9518 20.3128 28.8612 20.2061C28.7706 20.0995 28.6451 20.0305 28.5082 20.0121C27.5522 19.8886 26.673 19.412 26.0357 18.6717C25.3983 17.9314 25.0467 16.9783 25.0467 15.9913C25.0467 15.0043 25.3983 14.0512 26.0357 13.3109C26.673 12.5706 27.5522 12.094 28.5082 11.9705V11.9763ZM19.77 17.2274C19.9948 17.2274 20.2105 17.3189 20.3695 17.4817C20.5285 17.6446 20.6178 17.8655 20.6178 18.0958C20.6178 18.3261 20.5285 18.547 20.3695 18.7099C20.2105 18.8727 19.9948 18.9642 19.77 18.9642H16.8478V21.7895C16.8478 22.0198 16.7585 22.2407 16.5995 22.4035C16.4405 22.5664 16.2249 22.6579 16 22.6579C15.7752 22.6579 15.5595 22.5664 15.4005 22.4035C15.2415 22.2407 15.1522 22.0198 15.1522 21.7895V18.9642H12.23C12.0052 18.9642 11.7895 18.8727 11.6305 18.7099C11.4715 18.547 11.3822 18.3261 11.3822 18.0958C11.3822 17.8655 11.4715 17.6446 11.6305 17.4817C11.7895 17.3189 12.0052 17.2274 12.23 17.2274H15.1522V14.9116H12.23C12.0052 14.9116 11.7895 14.8201 11.6305 14.6572C11.4715 14.4944 11.3822 14.2735 11.3822 14.0431C11.3822 13.8128 11.4715 13.5919 11.6305 13.4291C11.7895 13.2662 12.0052 13.1747 12.23 13.1747H13.9257L11.6083 10.8011C11.4585 10.6364 11.3769 10.4187 11.3807 10.1937C11.3846 9.96866 11.4736 9.75397 11.6289 9.59483C11.7843 9.4357 11.9939 9.34456 12.2136 9.34061C12.4332 9.33667 12.6458 9.42023 12.8065 9.57368L15.9717 12.8158L19.137 9.57368C19.2977 9.42023 19.5103 9.33667 19.7299 9.34061C19.9496 9.34456 20.1592 9.4357 20.3146 9.59483C20.4699 9.75397 20.5589 9.96866 20.5628 10.1937C20.5666 10.4187 20.485 10.6364 20.3352 10.8011L18.0178 13.1747H19.7135C19.9383 13.1747 20.154 13.2662 20.313 13.4291C20.472 13.5919 20.5613 13.8128 20.5613 14.0431C20.5613 14.2735 20.472 14.4944 20.313 14.6572C20.154 14.8201 19.9383 14.9116 19.7135 14.9116H16.8478V17.2274H19.77Z"></path>
</svg>