<svg xmlns="http://www.w3.org/2000/svg" viewBox="0 0 24 24" class="6039iammb__design-iconfont" width="32" height="32">
  <g clip-path="url(#6039iammb__y6y9pgogf__clip0_327_1987)">
    <path d="M12 22.32C17.6995 22.32 22.32 17.6995 22.32 12C22.32 6.30046 17.6995 1.67998 12 1.67998C6.30046 1.67998 1.67998 6.30046 1.67998 12C1.67998 17.6995 6.30046 22.32 12 22.32ZM12 23.4C5.70394 23.4 0.599976 18.296 0.599976 12C0.599976 5.70394 5.70394 0.599976 12 0.599976C18.296 0.599976 23.4 5.70394 23.4 12C23.4 18.296 18.296 23.4 12 23.4ZM12.8237 12L17.1511 16.3274C17.2524 16.4287 17.3093 16.566 17.3093 16.7093C17.3093 16.8525 17.2524 16.9898 17.1511 17.0911C17.0498 17.1924 16.9125 17.2493 16.7693 17.2493C16.626 17.2493 16.4887 17.1924 16.3874 17.0911L12.06 12.7637L7.73254 17.0911C7.63126 17.1924 7.49391 17.2493 7.3507 17.2493C7.20748 17.2493 7.07013 17.1924 6.96886 17.0911C6.86758 16.9898 6.81069 16.8525 6.81069 16.7093C6.81069 16.566 6.86758 16.4287 6.96886 16.3274L11.2963 12L6.96886 7.67254C6.86758 7.57126 6.81069 7.43391 6.81069 7.2907C6.81069 7.14748 6.86758 7.01013 6.96886 6.90886C7.07013 6.80758 7.20748 6.75069 7.3507 6.75069C7.49391 6.75069 7.63126 6.80758 7.73254 6.90886L12.06 11.2363L16.3874 6.90886C16.4376 6.85871 16.4971 6.81893 16.5626 6.7918C16.6281 6.76466 16.6983 6.75069 16.7693 6.75069C16.8402 6.75069 16.9104 6.76466 16.9759 6.7918C17.0414 6.81893 17.101 6.85871 17.1511 6.90886C17.2012 6.959 17.241 7.01853 17.2682 7.08404C17.2953 7.14956 17.3093 7.21978 17.3093 7.2907C17.3093 7.36161 17.2953 7.43183 17.2682 7.49735C17.241 7.56286 17.2012 7.62239 17.1511 7.67254L12.8237 12Z"></path>
  </g>
  <defs>
    <clipPath id="6039iammb__y6y9pgogf__clip0_327_1987">
      <path d="M0 0H24V24H0z"></path>
    </clipPath>
  </defs>
</svg>