<svg xmlns="http://www.w3.org/2000/svg" viewBox="0 0 16 16" class="key7qyr31__design-iconfont" width="32" height="32">
  <g clip-path="url(#key7qyr31__9r7ewwwfp__clip0_323_1279)">
    <path d="M8 0C3.58222 0 0 3.58222 0 8C0 12.4178 3.58222 16 8 16C12.4178 16 16 12.4178 16 8C16 3.58222 12.4178 0 8 0ZM10.5156 7.74222V8.55111H8.53333V9.67111H10.5156V10.4978H8.53333V12.1244H7.51111V10.4978H5.44889V9.67111H7.50222V8.55111H5.44889V7.74222H7.2L5.06667 4.07111H6.21333C7.21778 5.89333 7.82222 7.05778 8.03555 7.54667H8.05333C8.12444 7.34222 8.32889 6.94222 8.64889 6.32889L9.87556 4.07111H10.96L8.8 7.75111H10.5156V7.74222Z"></path>
  </g>
  <defs>
    <clipPath id="key7qyr31__9r7ewwwfp__clip0_323_1279">
      <path d="M0 0H16V16H0z"></path>
    </clipPath>
  </defs>
</svg>