<svg xmlns="http://www.w3.org/2000/svg" viewBox="0 0 16 16" class="5ukx91og0__design-iconfont" width="32" height="32">
  <g clip-path="url(#5ukx91og0__hqzurlt8d__clip0_323_1282)">
    <path d="M3.6 9.008C3.408 9.16 3.208 9.384 3.152 9.664C3.072 10.048 3.136 10.528 3.504 10.912C3.952 11.368 4.64 11.496 4.936 11.52C5.736 11.576 6.592 11.176 7.24 10.728C7.496 10.552 7.928 10.192 8.336 9.64C7.408 9.16 6.248 8.632 5.016 8.68C4.384 8.704 3.928 8.832 3.6 9.008ZM15.36 11.128C15.768 10.168 16 9.112 16 8C16 3.592 12.408 0 8 0C3.592 0 0 3.592 0 8C0 12.408 3.592 16 8 16C10.664 16 13.024 14.688 14.48 12.688C13.104 12.008 10.84 10.88 9.44 10.2C8.776 10.96 7.792 11.72 6.68 12.048C5.984 12.256 5.352 12.336 4.696 12.2C4.04 12.064 3.56 11.76 3.28 11.456C3.136 11.296 2.976 11.104 2.856 10.864C2.864 10.88 2.872 10.896 2.872 10.912C2.872 10.912 2.8 10.792 2.752 10.608C2.728 10.512 2.704 10.424 2.696 10.328C2.688 10.264 2.688 10.192 2.696 10.128C2.688 10.008 2.696 9.88 2.72 9.752C2.784 9.432 2.92 9.064 3.272 8.728C4.04 7.976 5.064 7.936 5.6 7.944C6.384 7.952 7.76 8.296 8.912 8.704C9.232 8.024 9.44 7.296 9.568 6.808H4.768V6.288H7.232V5.248H4.256V4.72H7.232V3.68C7.232 3.536 7.264 3.424 7.488 3.424H8.656V4.72H11.896V5.24H8.656V6.28H11.248C11.248 6.28 10.984 7.728 10.176 9.16C11.976 9.8 14.52 10.792 15.36 11.128Z"></path>
  </g>
  <defs>
    <clipPath id="5ukx91og0__hqzurlt8d__clip0_323_1282">
      <path d="M0 0H16V16H0z"></path>
    </clipPath>
  </defs>
</svg>