<svg xmlns="http://www.w3.org/2000/svg" viewBox="0 0 32 32" class="ghxlf503w__design-iconfont" width="32" height="32">
  <path d="M10.5 10.123C10.6833 7.39421 12.9292 5.16993 15.6563 5.00941C18.8417 4.82596 21.5 7.34835 21.5 10.5128C21.5 13.5396 19.0479 16.0162 16 16.0162C12.8375 16.0162 10.2938 13.3333 10.5 10.123ZM17.8104 23.3311C17.8104 21.2444 18.9792 19.4099 20.6979 18.4927C18.9792 18.057 17.2604 17.8277 15.9771 17.8277C12.3333 17.8277 5 19.6622 5 23.3311V26.0828C5 26.5872 5.4125 27 5.91667 27H19.2083C18.3375 26.0369 17.8104 24.7528 17.8104 23.3311ZM27 22.4138H24.25V19.6622H22.4167V22.4138H19.6667V24.2483H22.4167V27H24.25V24.2483H27V22.4138Z"></path>
</svg>