<svg xmlns="http://www.w3.org/2000/svg" class="txd3dv8t5__icon txd3dv8t5__design-iconfont" viewBox="0 0 1024 1024">
  <path d="M853.632 128H170.258286A97.188571 97.188571 0 0 0 73.142857 224.914286v574.171428A97.188571 97.188571 0 0 0 170.258286 896h683.373714A97.206857 97.206857 0 0 0 950.857143 799.085714V224.914286A97.188571 97.188571 0 0 0 853.632 128zM170.258286 178.578286h683.373714a46.445714 46.445714 0 0 1 46.445714 46.354285v99.529143a25.106286 25.106286 0 0 0-3.529143-0.365714H123.812571V224.914286a46.464 46.464 0 0 1 46.445715-46.336z m683.373714 666.806857H170.258286a46.464 46.464 0 0 1-46.445715-46.299429V374.857143H896.548571a25.106286 25.106286 0 0 0 3.529143-0.365714V799.085714a46.445714 46.445714 0 0 1-46.445714 46.299429zM707.657143 448.987429a25.344 25.344 0 0 0-25.380572 25.307428 175.926857 175.926857 0 0 1-351.835428 0 25.362286 25.362286 0 0 0-50.742857 0 226.742857 226.742857 0 0 0 453.321143 0 25.344 25.344 0 0 0-25.362286-25.307428z"></path>
</svg>