<svg xmlns="http://www.w3.org/2000/svg" class="56okjjbnm__icon 56okjjbnm__design-iconfont" viewBox="0 0 1024 1024">
  <path d="M793.6 947.2H230.4a102.4 102.4 0 0 1-102.4-102.4V230.4a102.4 102.4 0 0 1 102.4-102.4h128v51.2H230.4a51.2 51.2 0 0 0-51.2 51.2v614.4a51.2 51.2 0 0 0 51.2 51.2h563.2a51.2 51.2 0 0 0 51.2-51.2V230.4a51.2 51.2 0 0 0-51.2-51.2h-128V128h128a102.4 102.4 0 0 1 102.4 102.4v614.4a102.4 102.4 0 0 1-102.4 102.4z"></path>
  <path d="M640 230.4H384a51.2 51.2 0 0 1-51.2-51.2V128a51.2 51.2 0 0 1 51.2-51.2h256a51.2 51.2 0 0 1 51.2 51.2v51.2a51.2 51.2 0 0 1-51.2 51.2z m0-102.4H384v51.2h256V128zM332.8 358.4h358.4a25.6 25.6 0 0 1 0 51.2H332.8a25.6 25.6 0 0 1 0-51.2zM332.8 512h358.4a25.6 25.6 0 0 1 0 51.2H332.8a25.6 25.6 0 0 1 0-51.2zM332.8 665.6h358.4a25.6 25.6 0 0 1 0 51.2H332.8a25.6 25.6 0 0 1 0-51.2z"></path>
</svg>