<svg xmlns="http://www.w3.org/2000/svg" class="1eqet2811__icon 1eqet2811__design-iconfont" viewBox="0 0 1054 1024">
  <path d="M60.235294 60.235294v903.529412h933.647059V60.235294H60.235294z m0-60.235294h933.647059a60.235294 60.235294 0 0 1 60.235294 60.235294v903.529412a60.235294 60.235294 0 0 1-60.235294 60.235294H60.235294a60.235294 60.235294 0 0 1-60.235294-60.235294V60.235294a60.235294 60.235294 0 0 1 60.235294-60.235294z m361.411765 60.235294v378.75953l102.761412-37.044706a60.235294 60.235294 0 0 1 41.562353 0.271058L662.588235 438.422588V60.235294h-240.941176z m0-60.235294h240.941176a60.235294 60.235294 0 0 1 60.235294 60.235294v378.187294a60.235294 60.235294 0 0 1-81.377882 56.410353l-96.587294-36.231529-102.791529 37.044706A60.235294 60.235294 0 0 1 361.411765 439.055059V60.235294a60.235294 60.235294 0 0 1 60.235294-60.235294zM0 301.176471V240.941176h391.529412v60.235295H0z m662.588235 0V240.941176h331.294118v60.235295H662.588235z"></path>
</svg>