<svg xmlns="http://www.w3.org/2000/svg" class="lz4r2qdop__icon lz4r2qdop__design-iconfont" viewBox="0 0 1024 1024" width="128" height="128">
  <path d="M583.1 430.6c-17.1 17.1-26.5 39.6-26.5 63.5v35.8c0 23.9 9.4 46.4 26.5 63.5s39.6 26.5 63.5 26.5h312.6V404.1H646.6c-23.9 0-46.5 9.4-63.5 26.5zM683.4 472c22.1 0 40 17.9 40 40s-17.9 40-40 40-40-17.9-40-40 17.9-40 40-40z" fill="#7893FC"></path>
  <path d="M837.4 120.8H186.6c-67.2 0-121.9 54.6-121.9 121.9v538.6c0 67.2 54.6 121.9 121.9 121.9h650.7c67.2 0 121.9-54.6 121.9-121.9V669.9H646.6c-77 0-140-63-140-140v-35.8c0-77 63-140 140-140h312.6V242.7c0-67.2-54.7-121.9-121.8-121.9z" fill="#7893FC"></path>
</svg>