<svg xmlns="http://www.w3.org/2000/svg" class="8w6rip928__icon 8w6rip928__design-iconfont" viewBox="0 0 1024 1024" width="128" height="128">
  <path d="M815.8 240.11C761.56 118.93 645.38 43.64 512.62 43.64s-248.95 75.28-303.19 196.47c-54.24 121.18-33 257.96 55.45 356.98l227.18 254.33c5.24 5.85 12.72 9.2 20.56 9.2 7.84 0 15.32-3.35 20.56-9.2L760.36 597.1c88.44-99.02 109.69-235.8 55.44-356.99z" fill="#FCB54B"></path>
  <path d="M624.71 666.21c-36.79-2.8-74.47-4.23-112.1-4.23-37.62 0-75.31 1.43-112.1 4.23l112.1 125.49 112.1-125.49z" fill="#FCB54B"></path>
  <path d="M757.21 683.37L574.29 888.15c-15.72 17.56-38.18 27.6-61.67 27.6-23.49 0-45.95-10.04-61.62-27.54L268.02 683.37C136.59 708.39 39.41 755.13 39.41 822.4c0 105.32 238.05 160.42 473.2 160.42s473.2-55.1 473.2-160.42c0.01-67.27-97.16-114.01-228.6-139.03z" fill="#FCB54B"></path>
  <path d="M370.85 367.75a141.77 141.76 0 1 0 283.54 0 141.77 141.76 0 1 0-283.54 0Z" fill="#FCB54B"></path>
</svg>