<svg xmlns="http://www.w3.org/2000/svg" class="j5qeqzyum__icon j5qeqzyum__design-iconfont" viewBox="0 0 1024 1024" width="128" height="128">
  <path d="M830.02 97.9H193.98C122.19 97.9 64 156.09 64 227.88v460.04c0 71.79 58.19 129.98 129.98 129.98h201.33l102.2 102.2c8 8 20.97 8 28.97 0l102.2-102.2h201.33c71.79 0 129.98-58.19 129.98-129.98V227.88C960 156.09 901.81 97.9 830.02 97.9z m-576.49 435c-41.42 0-75-33.58-75-75s33.58-75 75-75 75 33.58 75 75-33.57 75-75 75z m257.33 0c-41.42 0-75-33.58-75-75s33.58-75 75-75 75 33.58 75 75-33.57 75-75 75z m259.61 0c-41.42 0-75-33.58-75-75s33.58-75 75-75 75 33.58 75 75-33.58 75-75 75z" fill="#45BE8B"></path>
</svg>