<svg xmlns="http://www.w3.org/2000/svg" class="icon design-iconfont" viewBox="0 0 1024 1024" width="128" height="128">
  <path d="M617.614618 637.707476c108.438026-36.082203 186.727793-138.227378 186.727793-258.748636 0-150.741299-122.16027-272.853715-272.853714-272.853715S258.634982 228.265396 258.634982 378.95884c0 114.742841 70.920192 212.77254 171.246901 253.089856C240.952788 668.465879 96.097578 828.072202 81.609664 1024h860.780672c-13.901698-187.660954-147.523092-341.608496-324.775718-386.292524z" fill="#FCB54B"></path>
  <path d="M201.783978 506.119893V335.184045c16.844742-166.293973 156.806842-296.206652 327.539308-296.206652 165.42063 0 301.829542 122.028671 325.505497 280.809505-0.227308 0-0.430689-0.095709-0.657998-0.107672v186.440667a93.50746 93.50746 0 0 0 86.592502-93.220333c0-33.833047-18.196628-63.107964-45.102754-79.510054C877.822813 146.410477 720.968117 0 529.323286 0c-191.046651 0-347.470658 145.501244-366.086012 331.630858a93.20837 93.20837 0 0 0 38.582594 174.489035z" fill="#FCB54B"></path>
</svg>