<svg xmlns="http://www.w3.org/2000/svg" class="yqqhiisat__icon yqqhiisat__design-iconfont" viewBox="0 0 1024 1024" width="128" height="128">
  <path d="M790.3 639.4L638.2 518l68.6-68.6c27.1-27.1 27.1-71.3 0-98.4L557.2 201.4c-27.1-27.1-71.3-27.2-98.4 0L185.4 474.9c-27.1 27.1-27.1 71.3 0 98.4L335 722.8c13.6 13.6 31.4 20.4 49.2 20.4 17.8 0 35.6-6.8 49.2-20.4l68.6-68.6 121.4 152.1c17.4 21.8 43 34.7 72.1 36.4 2.1 0.1 4.2 0.2 6.2 0.2 31.8 0 63.4-13.5 87.5-37.6 25.7-25.7 39.3-59.9 37.5-93.8-1.6-29.1-14.6-54.7-36.4-72.1z m-389-28.2c-12 12-31.4 12-43.4 0L308 561.3c-12-12-12-31.4 0-43.4s31.4-12 43.4 0l49.9 49.9c11.9 12 11.9 31.5 0 43.4z" fill="#FFFFFF"></path>
</svg>