<svg xmlns="http://www.w3.org/2000/svg" viewBox="0 0 20 22" class="77j3vsoi6__design-iconfont" width="116.36363636363636" height="128">
  <path d="M9.96752 0C12.3268 0 14.2393 1.91255 14.2393 4.2718V5.69573C14.2393 8.05497 12.3268 9.96752 9.96752 9.96752C7.60827 9.96752 5.69573 8.05497 5.69573 5.69573V4.2718C5.69573 1.91255 7.60827 0 9.96752 0ZM19.935 19.935C19.935 19.5894 19.935 19.2438 19.935 18.8982C19.935 14.3609 14.686 11.3915 9.96752 11.3915C5.24903 11.3915 0 14.3609 0 18.8982V19.935C0 20.7215 0.637516 21.359 1.42393 21.359H18.5111C19.2975 21.359 19.935 20.7215 19.935 19.935Z" fill="#CCCCCC"></path>
</svg>